# xmcd
#
# Track frame offsets: 
#        150
#        21306
#        36937
#        52182
#        66761
#        80719
#        106122
#        125074
#        142122
#        163834
#        183315
#        199888
#
# Disc length: 2881 seconds
#
# Revision: 0
# Processed by: cddbd v1.5.2PL0 Copyright (c) Steve Scherf et al.
# Submitted via: ExactAudioCopy v1.0b1
#
DISCID=b60b3f0c
DTITLE=Mason Douglas - In The Meantime - Volume 1
DYEAR=2010
DGENRE=Country
TTITLE0=Main St. Or Me
TTITLE1=Hillbilly Rebellion
TTITLE2=What If I...
TTITLE3=If Only Love Was Enough
TTITLE4=Connected
TTITLE5=Brand New Day
TTITLE6=Right Now, Romeo
TTITLE7=Love Letter
TTITLE8=The Crying Line
TTITLE9=My Apologies
TTITLE10=You Can't Make This Stuff Up
TTITLE11=Letter Burn
EXTD=
EXTT0=
EXTT1=
EXTT2=
EXTT3=
EXTT4=
EXTT5=
EXTT6=
EXTT7=
EXTT8=
EXTT9=
EXTT10=
EXTT11=
PLAYORDER=
